<svg width="32" height="32" viewBox="0 0 32 32" fill="none" xmlns="http://www.w3.org/2000/svg">
<path d="M30.9125 21.225L26.6625 7.07498C26.5809 6.78879 26.4348 6.5251 26.2354 6.3041C26.0361 6.0831 25.7888 5.91065 25.5125 5.79998H25.4375L25.5125 5.77498C24.118 5.21622 22.6742 4.78936 21.2 4.49998C21.0712 4.47451 20.9386 4.47468 20.8098 4.50047C20.681 4.52627 20.5585 4.57718 20.4494 4.65031C20.3403 4.72344 20.2466 4.81736 20.1738 4.92668C20.101 5.03601 20.0505 5.15861 20.025 5.28748C19.9977 5.4156 19.9961 5.54787 20.0204 5.6766C20.0447 5.80533 20.0943 5.92794 20.1665 6.03729C20.2386 6.14665 20.3317 6.24056 20.4405 6.31356C20.5493 6.38655 20.6715 6.43718 20.8 6.46248C21.3625 6.57498 21.9125 6.71248 22.45 6.86248C22.648 6.96524 22.8059 7.13125 22.8987 7.33409C22.9915 7.53693 23.0138 7.76498 22.9621 7.98195C22.9103 8.19893 22.7876 8.39238 22.6132 8.53154C22.4389 8.67071 22.2231 8.7476 22 8.74998H21.9C19.9737 8.24762 17.9908 7.99554 16 7.99998C14.0561 7.99419 12.1195 8.23784 10.2375 8.72498C9.99806 8.78817 9.74366 8.76024 9.5236 8.64661C9.30354 8.53297 9.13348 8.34172 9.04634 8.10989C8.95921 7.87805 8.96121 7.62213 9.05195 7.39168C9.1427 7.16124 9.31573 6.97266 9.53754 6.86248H9.55004C10.0875 6.71248 10.6375 6.57498 11.2 6.46248C11.3289 6.43706 11.4515 6.3865 11.5608 6.31369C11.6702 6.24088 11.7641 6.14724 11.8372 6.03812C11.9103 5.92901 11.9612 5.80656 11.987 5.67776C12.0128 5.54896 12.013 5.41634 11.9875 5.28748C11.9332 5.02883 11.7799 4.80167 11.5604 4.65453C11.3408 4.50739 11.0724 4.45192 10.8125 4.49998C9.33307 4.79583 7.88494 5.23111 6.48754 5.79998C6.21126 5.91065 5.96399 6.0831 5.76465 6.3041C5.56532 6.5251 5.41921 6.78879 5.33754 7.07498L1.08754 21.225C0.977282 21.5949 0.976446 21.9889 1.08513 22.3593C1.19381 22.7297 1.40737 23.0608 1.70004 23.3125C1.81503 23.4232 1.93604 23.5276 2.06254 23.625H2.07504C4.10004 25.275 6.76254 26.5375 9.76254 27.2625C9.83932 27.2871 9.91942 27.2997 10 27.3C10.2473 27.3039 10.4872 27.2161 10.6735 27.0535C10.8598 26.8909 10.9792 26.665 11.0087 26.4195C11.0383 26.174 10.9758 25.9263 10.8333 25.7241C10.6909 25.522 10.4787 25.3798 10.2375 25.325C8.88885 24.9992 7.57765 24.5342 6.32504 23.9375C6.15359 23.7768 6.04419 23.561 6.01601 23.3277C5.98783 23.0945 6.04267 22.8587 6.17092 22.6619C6.29918 22.465 6.49264 22.3196 6.71739 22.2512C6.94214 22.1827 7.18382 22.1956 7.40004 22.2875C9.77504 23.3375 12.7625 24 16 24C19.2375 24 22.225 23.3375 24.6 22.2875C24.8162 22.1956 25.0579 22.1827 25.2827 22.2512C25.5074 22.3196 25.7009 22.465 25.8291 22.6619C25.9574 22.8587 26.0122 23.0945 25.9841 23.3277C25.9559 23.561 25.8465 23.7768 25.675 23.9375C24.4224 24.5342 23.1112 24.9992 21.7625 25.325C21.5214 25.3798 21.3091 25.522 21.1667 25.7241C21.0243 25.9263 20.9618 26.174 20.9913 26.4195C21.0209 26.665 21.1403 26.8909 21.3266 27.0535C21.5129 27.2161 21.7528 27.3039 22 27.3C22.0807 27.2997 22.1608 27.2871 22.2375 27.2625C25.2375 26.5375 27.9 25.275 29.925 23.625H29.9375C30.064 23.5276 30.185 23.4232 30.3 23.3125C30.5927 23.0608 30.8063 22.7297 30.9149 22.3593C31.0236 21.9889 31.0228 21.5949 30.9125 21.225ZM12 19.5C11.7034 19.5 11.4134 19.412 11.1667 19.2472C10.92 19.0824 10.7277 18.8481 10.6142 18.574C10.5007 18.2999 10.471 17.9983 10.5289 17.7073C10.5867 17.4164 10.7296 17.1491 10.9394 16.9393C11.1492 16.7295 11.4164 16.5867 11.7074 16.5288C11.9984 16.4709 12.3 16.5006 12.5741 16.6142C12.8481 16.7277 13.0824 16.92 13.2472 17.1666C13.4121 17.4133 13.5 17.7033 13.5 18C13.5 18.3978 13.342 18.7793 13.0607 19.0606C12.7794 19.3419 12.3979 19.5 12 19.5ZM20 19.5C19.7034 19.5 19.4134 19.412 19.1667 19.2472C18.92 19.0824 18.7277 18.8481 18.6142 18.574C18.5007 18.2999 18.471 17.9983 18.5289 17.7073C18.5867 17.4164 18.7296 17.1491 18.9394 16.9393C19.1492 16.7295 19.4164 16.5867 19.7074 16.5288C19.9984 16.4709 20.3 16.5006 20.5741 16.6142C20.8481 16.7277 21.0824 16.92 21.2472 17.1666C21.4121 17.4133 21.5 17.7033 21.5 18C21.5 18.3978 21.342 18.7793 21.0607 19.0606C20.7794 19.3419 20.3979 19.5 20 19.5Z" fill="#3A5CCC"/>
</svg>
