<svg width="32" height="32" viewBox="0 0 32 32" fill="none" xmlns="http://www.w3.org/2000/svg">
<path d="M16 20C18.2091 20 20 18.2091 20 16C20 13.7909 18.2091 12 16 12C13.7909 12 12 13.7909 12 16C12 18.2091 13.7909 20 16 20Z" fill="#E03177"/>
<path d="M21.5 3.5H10.5C8.64348 3.5 6.86301 4.2375 5.55025 5.55025C4.2375 6.86301 3.5 8.64348 3.5 10.5V21.5C3.5 23.3565 4.2375 25.137 5.55025 26.4497C6.86301 27.7625 8.64348 28.5 10.5 28.5H21.5C23.3565 28.5 25.137 27.7625 26.4497 26.4497C27.7625 25.137 28.5 23.3565 28.5 21.5V10.5C28.5 8.64348 27.7625 6.86301 26.4497 5.55025C25.137 4.2375 23.3565 3.5 21.5 3.5ZM16 22C14.8133 22 13.6533 21.6481 12.6666 20.9888C11.6799 20.3295 10.9108 19.3925 10.4567 18.2961C10.0026 17.1997 9.88378 15.9933 10.1153 14.8295C10.3468 13.6656 10.9182 12.5965 11.7574 11.7574C12.5965 10.9182 13.6656 10.3468 14.8295 10.1153C15.9933 9.88378 17.1997 10.0026 18.2961 10.4567C19.3925 10.9108 20.3295 11.6799 20.9888 12.6666C21.6481 13.6533 22 14.8133 22 16C22 17.5913 21.3679 19.1174 20.2426 20.2426C19.1174 21.3679 17.5913 22 16 22ZM22.5 11C22.2033 11 21.9133 10.912 21.6666 10.7472C21.42 10.5824 21.2277 10.3481 21.1142 10.074C21.0007 9.79994 20.9709 9.49834 21.0288 9.20736C21.0867 8.91639 21.2296 8.64912 21.4393 8.43934C21.6491 8.22956 21.9164 8.0867 22.2074 8.02882C22.4983 7.97094 22.7999 8.00065 23.074 8.11418C23.3481 8.22771 23.5824 8.41997 23.7472 8.66665C23.912 8.91332 24 9.20333 24 9.5C24 9.89782 23.842 10.2794 23.5607 10.5607C23.2794 10.842 22.8978 11 22.5 11Z" fill="#E03177"/>
</svg>
